<svg width="275" height="216" viewBox="0 0 275 216" fill="none" xmlns="http://www.w3.org/2000/svg">
<path d="M166.146 31.5C146.094 31.05 151.25 18 137.5 18C123.75 18 128.906 31.05 108.854 31.5C92.2396 31.95 85.9375 54 85.9375 54L137.5 157.5L189.062 54C189.062 54 182.76 31.95 166.146 31.5Z" fill="#689F38"/>
<path d="M114.583 202.5C112.292 192.15 120.885 183.15 109.427 177.75C103.698 175.05 96.8229 174.15 91.6667 171C83.0729 166.5 85.3646 154.35 83.0729 146.25C82.5 144.9 81.9271 143.1 80.7813 142.2C78.4896 139.95 68.1771 136.35 64.7396 135.45C57.8646 134.55 53.2812 130.5 51.5625 126C49.8437 121.05 52.1354 115.65 51.5625 110.7C51.5625 104.4 53.8542 102.6 48.125 98.1C44.1146 95.4 39.5312 93.6 36.6667 90C31.5104 83.7 34.9479 72 43.5417 68.4C48.125 66.6 53.8542 66.15 57.2917 58.05C60.1562 50.85 60.1562 48.6 63.0208 41.4C65.3125 35.55 72.7604 31.5 80.2083 31.05C87.6562 30.6 95.1042 34.2 97.3958 40.05C100.833 48.15 99.1146 47.7 103.125 53.55C107.708 60.3 125.469 62.1 126.042 76.05C126.042 81 117.448 88.2 119.74 92.25C120.885 94.05 123.177 95.4 125.469 97.2C131.198 101.7 134.063 108.45 132.917 114.75C132.344 118.35 130.052 121.95 129.479 126C128.906 134.1 136.927 140.4 143.229 147.15C158.125 162.9 148.958 175.05 148.958 202.05C148.958 202.5 114.583 202.5 114.583 202.5Z" fill="#8BC34A"/>
<path d="M148.958 202.5C151.25 192.15 154.115 183.15 165.573 177.75C171.302 175.05 178.177 174.15 183.333 171C191.927 166.5 189.635 154.35 191.927 146.25C192.5 144.9 193.073 143.1 194.219 142.2C196.51 139.95 206.823 136.35 210.26 135.45C215.99 134.1 221.146 130.5 222.865 126C224.583 121.05 222.292 115.65 222.865 110.7C222.865 104.4 220.573 102.6 226.302 98.1C230.312 95.4 234.896 93.6 237.76 90C242.917 83.7 239.479 72 230.885 68.4C226.302 66.6 220.573 63.9 217.135 58.05C213.125 51.3 214.271 48.6 211.406 41.4C209.115 35.55 201.667 31.5 194.219 31.05C186.771 30.6 179.323 34.2 177.031 40.05C173.594 48.15 175.312 47.7 171.302 53.55C166.719 60.3 148.958 62.1 148.385 76.05C148.385 81 156.979 88.2 154.687 92.25C153.542 94.05 151.25 95.4 148.958 97.2C143.229 101.7 140.365 108.45 141.51 114.75C142.083 118.35 144.375 121.95 144.948 126C145.521 134.1 137.5 140.4 131.198 147.15C116.302 162.9 114.01 175.05 114.01 202.05C114.583 202.5 148.958 202.5 148.958 202.5Z" fill="#8BC34A"/>
<path d="M166.146 31.5C150.104 31.05 150.104 22.5 143.802 19.35C148.958 40.05 165.573 38.25 164.427 45C163.854 46.8 163.854 47.7 162.135 49.95C161.563 50.4 158.698 52.2 156.979 53.1C150.104 56.7 138.646 63 138.073 76.5C138.073 76.5 138.073 76.5 138.073 76.95C138.073 76.95 138.073 76.95 138.073 76.5C137.5 63 126.042 57.15 119.167 53.1C117.448 52.2 114.583 50.85 114.01 49.95C112.292 47.7 111.719 47.25 111.719 45C111.146 37.8 126.042 40.05 132.344 19.35C124.896 22.5 124.896 31.05 108.854 31.5C103.125 31.5 99.1146 34.2 95.6771 37.35C96.25 38.25 96.8229 39.6 97.3958 40.5C100.833 48.6 99.1146 48.15 103.125 54C107.708 60.75 125.469 62.55 126.042 76.5C126.042 81.45 117.448 88.65 119.74 92.7C120.885 94.5 123.177 95.85 125.469 97.65C131.198 102.15 134.063 108.9 132.917 115.2C132.344 118.8 130.052 122.4 129.479 126.45C129.479 129.15 130.052 131.4 131.198 133.65C111.719 149.4 114.583 181.8 115.156 184.05C116.302 168.75 120.885 159.3 131.771 147.6C133.49 145.8 135.781 144 137.5 141.75C142.083 137.25 146.094 132.3 145.521 126.45C145.521 122.4 143.229 118.8 142.083 115.2C140.938 108.9 143.229 102.15 149.531 97.65C151.25 96.3 154.115 94.95 155.26 92.7C157.552 88.2 148.958 81 148.958 76.5C149.531 62.55 167.292 60.75 171.875 54C175.885 48.15 174.167 48.15 177.604 40.5C178.177 39.6 178.75 38.25 179.323 37.35C175.885 34.2 171.875 31.5 166.146 31.5ZM141.51 91.35C139.792 92.7 138.646 93.6 137.5 94.95C136.354 93.6 134.635 92.25 133.49 91.35C132.917 90.9 132.344 90.45 131.771 90C132.344 89.1 132.917 88.65 132.917 87.75C135.208 84.6 137.5 81 137.5 76.95C137.5 81 139.792 84.6 142.083 87.75C142.656 88.2 143.229 89.1 143.229 90C142.656 90.45 142.083 90.9 141.51 91.35Z" fill="#558B2F"/>
<path d="M115.156 165.6C114.583 164.7 114.01 164.25 113.437 163.35C111.146 159.75 108.281 156.15 105.417 152.55C102.552 148.95 99.6875 144.9 96.8229 140.85C93.9583 136.8 91.0938 132.75 88.8021 128.7C86.5104 124.65 83.6458 120.6 81.9271 116.55C79.6354 112.5 78.4896 108.45 77.3438 104.85C76.1979 101.25 75.625 97.2 75.0521 94.05C74.4792 90.45 74.4792 87.3 74.4792 84.6C73.9063 81.9 75.0521 79.65 75.0521 77.4C75.625 73.35 75.625 71.1 75.625 71.1C75.625 71.1 75.625 73.35 76.1979 77.4C76.1979 79.2 76.1979 81.9 76.7708 84.15C77.3438 86.85 77.9167 90 79.0625 93.15C80.2083 96.3 81.3542 99.9 83.0729 103.5C84.7917 107.1 86.5104 110.7 89.375 114.3C91.6667 117.9 94.5313 121.5 97.3958 125.1C100.26 128.7 103.698 132.3 107.135 135.9C110.573 139.5 114.01 143.1 117.448 146.25C118.594 147.15 119.167 148.05 120.313 148.95C119.74 150.75 118.594 153 118.021 154.8C118.021 155.25 118.021 155.25 118.021 155.7C118.021 156.15 118.021 156.15 118.021 156.6C117.448 157.5 117.448 158.85 117.448 159.75C117.448 161.1 116.875 162.45 116.875 163.8C115.729 164.25 115.729 165.15 115.156 165.6ZM143.229 202.5C143.229 202.5 143.229 200.25 142.656 196.2C142.083 193.95 142.656 192.6 143.229 190.35C143.229 188.55 143.802 185.85 144.948 182.7C145.521 181.35 146.094 179.55 146.667 178.2C147.24 176.85 147.813 175.05 148.958 173.25C150.677 170.1 152.969 166.5 155.26 162.9C157.552 159.3 160.417 155.7 163.281 152.1C166.146 148.5 169.01 144.45 171.875 140.4C174.74 136.35 177.604 132.3 179.896 128.25C182.188 124.2 185.052 120.15 186.771 116.1C189.062 112.05 190.208 108 191.354 104.4C192.5 100.8 193.073 96.75 193.646 93.6C194.219 90 194.219 87.3 194.219 84.15C194.792 81.45 193.646 79.2 193.646 76.95C193.073 72.9 193.073 70.65 193.073 70.65C193.073 70.65 193.073 72.9 192.5 76.95C192.5 78.75 192.5 81.45 191.927 83.7C191.354 86.4 190.781 89.55 189.635 92.7C188.49 95.85 187.344 99.45 185.625 103.05C183.906 106.65 182.187 110.25 179.323 113.85C177.031 117.45 174.167 121.05 171.302 124.65C168.438 128.25 165 131.85 161.563 135.45C158.125 139.05 154.688 142.65 151.25 145.8C147.813 149.4 144.375 152.55 140.938 156.15C137.5 159.75 134.635 163.35 132.344 166.95C131.198 168.75 130.052 170.55 128.906 172.35C127.76 174.15 126.615 175.95 126.042 177.75C124.323 181.35 122.604 184.5 122.031 187.65C120.885 190.8 120.313 193.95 120.313 195.75C120.313 200.25 120.313 202.5 120.313 202.5H143.229Z" fill="#DCEDC8"/>
</svg>
